<?xml version="1.0" encoding="UTF-8" standalone="no"?>
<!-- Created with Inkscape (http://www.inkscape.org/) -->

<svg
   height="1000"
   width="1000"
   sodipodi:docname="air.svg"
   version="1.1"
   id="svg262"
   viewBox="0 0 1000 1000"
   inkscape:version="1.1 (c68e22c387, 2021-05-23)"
   xmlns:inkscape="http://www.inkscape.org/namespaces/inkscape"
   xmlns:sodipodi="http://sodipodi.sourceforge.net/DTD/sodipodi-0.dtd"
   xmlns="http://www.w3.org/2000/svg"
   xmlns:svg="http://www.w3.org/2000/svg"
   xmlns:rdf="http://www.w3.org/1999/02/22-rdf-syntax-ns#"
   xmlns:cc="http://creativecommons.org/ns#"
   xmlns:dc="http://purl.org/dc/elements/1.1/">
  <sodipodi:namedview
     id="base"
     pagecolor="#ffffff"
     bordercolor="#666666"
     borderopacity="1.0"
     inkscape:pageopacity="0.0"
     inkscape:pageshadow="2"
     inkscape:zoom="1"
     inkscape:cx="428.5"
     inkscape:cy="290"
     inkscape:document-units="px"
     inkscape:current-layer="layer1"
     showgrid="false"
     showguides="true"
     inkscape:window-width="1918"
     inkscape:window-height="2054"
     inkscape:window-x="1910"
     inkscape:window-y="0"
     inkscape:window-maximized="0"
     showborder="true"
     inkscape:showpageshadow="false"
     inkscape:pagecheckerboard="0">
    <sodipodi:guide
       id="guide_baseline"
       inkscape:label="baseline"
       position="0,253"
       orientation="0,1" />
    <sodipodi:guide
       id="guide_ascender"
       inkscape:label="ascender"
       position="0,945"
       orientation="0,1" />
    <sodipodi:guide
       id="guide_caps"
       inkscape:label="caps"
       position="0,896"
       orientation="0,1" />
    <sodipodi:guide
       id="guide_xheight"
       inkscape:label="xheight"
       position="0,729"
       orientation="0,1" />
    <sodipodi:guide
       id="guide_descender"
       inkscape:label="descender"
       position="0,28"
       orientation="0,1" />
  </sodipodi:namedview>
  <defs
     id="defs4">
    <clipPath
       clipPathUnits="userSpaceOnUse"
       id="clipPath278">
      <path
         d="M 0,144 H 144 V 0 H 0 Z"
         id="path276" />
    </clipPath>
  </defs>
  <metadata
     id="metadata7">
    <rdf:RDF>
      <cc:Work
         rdf:about="">
        <dc:format>image/svg+xml</dc:format>
        <dc:type
           rdf:resource="http://purl.org/dc/dcmitype/StillImage" />
      </cc:Work>
    </rdf:RDF>
  </metadata>
  <g
     id="layer1"
     inkscape:groupmode="layer"
     inkscape:label="Layer 1">
    <path
       d="m 498.42327,897.97046 c -194.54774,0 -356.76919,-140.56973 -390.72577,-325.45212 14.8744,0.72971 29.74886,1.44397 44.61552,2.43768 l 56.88158,3.34593 c 18.83368,1.36637 38.07107,2.12718 56.28373,3.89721 18.59309,1.93306 36.18466,4.44056 50.15857,10.89964 13.8264,6.34258 23.32866,16.81531 29.23647,30.98322 5.24803,12.90264 5.90789,29.1512 1.21107,42.51177 -4.47165,13.64779 -13.98164,24.95115 -26.82988,32.56689 -6.70748,4.0369 -12.72399,6.39691 -19.68766,7.60801 -6.81617,1.15678 -13.88074,0.83066 -20.63478,-0.78404 -13.60902,-3.10532 -25.61883,-11.89341 -32.55146,-23.91091 -6.83941,-11.00056 -6.75405,-24.97446 -0.28705,-36.40979 3.16742,-5.70594 7.95738,-10.49602 13.80313,-13.9506 5.41879,-3.52451 11.50519,-4.87544 17.91763,-4.58034 6.30381,0.55144 12.70077,2.90344 17.55279,7.19655 2.43769,2.11939 4.58035,4.60364 6.29601,7.43716 1.49055,2.56188 2.61625,5.27903 3.02768,8.24467 0.89281,5.8845 -0.86947,12.44455 -5.02282,17.43636 -1.99517,2.47638 -4.83653,4.68127 -7.60803,6.14071 -2.71716,1.4673 -5.85348,2.04176 -9.05973,2.07278 -6.46684,0.0401 -13.13547,-3.43915 -16.76869,-9.37799 -3.46244,-5.27903 -2.92677,-13.28293 2.04176,-18.70179 2.49976,-2.74817 5.77588,-4.72001 9.42458,-5.16265 3.67979,-0.48139 7.71674,0.53571 10.8919,2.96563 3.214,2.40662 5.65943,6.16402 5.58183,10.47271 0,4.27753 -2.37557,8.73362 -6.44356,11.31881 4.53379,-1.5681 8.42318,-5.72153 9.45568,-10.96953 1.18003,-5.26345 -0.89276,-11.03158 -4.55706,-15.08393 -3.72638,-4.13784 -9.23826,-6.73075 -15.06853,-7.03356 -5.90781,-0.34185 -11.84673,1.87091 -16.41933,5.44201 -9.68857,7.00254 -13.66333,21.5276 -8.41538,33.35881 4.69681,11.30337 15.7051,19.79637 28.21954,21.72947 26.36409,3.8815 49.85574,-19.58677 49.14155,-46.1372 -0.10895,-6.53674 -1.66137,-13.17427 -4.54931,-19.06665 -2.70938,-5.58956 -6.37361,-10.77537 -10.75211,-15.29366 -8.75698,-9.07523 -20.58047,-14.90549 -33.07156,-17.02486 -12.45232,-1.95635 -26.0303,0.0623 -37.21716,5.93116 -10.97731,5.45756 -20.62705,14.005 -27.44323,24.51646 -6.98695,10.41051 -10.88409,22.9094 -11.48188,35.59457 -0.44251,12.63871 2.49981,25.78968 8.54736,36.666 11.24899,21.52759 32.24094,37.44232 55.59285,43.38887 11.69929,2.98122 24.02735,3.57126 36.01387,1.6769 11.86228,-1.79327 23.84881,-6.56776 33.40538,-12.38236 19.85068,-11.77688 36.46413,-31.35594 43.40451,-54.17999 6.90152,-22.83948 5.81465,-47.06092 -4.06025,-69.05433 -4.94518,-10.51145 -11.34214,-20.20776 -19.96713,-28.66198 -8.51633,-8.43873 -19.01224,-14.77355 -29.58582,-18.92689 -21.32575,-8.38435 -42.37977,-9.03646 -61.58613,-9.58767 -39.12692,-0.45008 -76.81763,1.58371 -115.13714,3.9205 -15.56541,1.23436 -31.12303,2.53858 -46.66509,4.15333 -0.61328,-4.08346 -1.08689,-8.21357 -1.57598,-12.33587 15.48775,-0.0624 30.96,-0.0524 46.44775,0.25619 34.32141,0.54323 68.63514,1.16449 102.95655,2.32898 68.61186,1.75455 137.29358,4.16113 205.70364,6.8938 17.24222,0.71423 33.84013,1.67686 50.77958,3.12083 17.12571,1.31203 33.54505,2.81808 49.78587,5.51195 32.23313,5.27125 63.04558,15.34801 84.47997,35.33843 10.54255,9.76625 19.90507,22.28057 25.16858,34.66308 2.68606,6.13299 4.20765,13.25963 5.33337,20.01368 0.58223,6.88602 0.87721,13.81864 -0.30277,20.61159 -1.98744,13.6089 -7.63133,26.64349 -16.28741,37.97017 -8.71038,11.2955 -20.19228,20.95299 -33.33548,28.56887 -13.07336,7.60015 -27.73046,14.05155 -42.21673,17.88658 -14.71138,3.88164 -30.12925,5.53523 -45.48506,4.9918 -30.60278,-1.02481 -61.41523,-11.15582 -83.73463,-29.82659 l -4.16889,-3.49347 -3.70308,-3.86606 c -2.6473,-2.46094 -4.70455,-5.32564 -6.85497,-8.1127 -4.24654,-5.54296 -7.24312,-11.12465 -8.90451,-17.18788 -3.78844,-11.93215 -1.83209,-24.82691 4.43286,-36.47184 6.56774,-11.55185 17.31984,-21.51201 30.30783,-28.51455 13.04231,-7.39055 27.16369,-11.58272 42.17014,-12.3592 14.85106,-0.75302 30.18358,1.66918 43.51311,7.74013 6.63761,3.01981 12.91812,6.76949 18.10394,11.48179 5.10827,4.75118 9.63425,10.2165 11.97098,15.6508 2.46098,5.54295 2.81808,11.57501 1.51384,17.56832 -1.35081,6.01647 -4.90636,11.83121 -9.68076,16.8153 -4.821,5.00724 -10.97733,9.12178 -17.80899,12.17277 -6.66089,3.09759 -13.90404,4.78993 -21.38781,5.25572 -14.81228,1.04797 -30.8357,-3.15964 -41.28509,-13.09664 -5.34111,-5.05385 -8.49304,-10.87631 -8.22905,-17.35873 0.24047,-6.39691 3.83502,-13.019 9.60315,-17.77791 11.49744,-9.92913 29.46933,-12.64628 43.97891,-5.79129 6.93262,3.33821 13.75655,9.45562 13.88074,17.48282 0.18632,8.11271 -6.53665,15.27808 -14.31544,18.62416 8.01169,-2.46881 16.21746,-8.79581 17.24222,-18.48448 0.47336,-4.69671 -1.11018,-9.56427 -3.85058,-13.32167 -2.64729,-3.83503 -6.1951,-6.99482 -10.13108,-9.44018 -15.87591,-9.57214 -37.50437,-8.71818 -53.32591,2.36787 -7.96513,5.38769 -14.76576,14.31532 -16.06224,25.16076 -1.54488,10.88403 3.70308,21.84584 10.31738,28.91043 13.65566,14.97526 33.39764,21.47312 52.62723,21.7838 9.68858,0.17055 19.57901,-1.60699 28.76295,-5.14708 9.05975,-3.39253 17.84777,-8.35332 25.41695,-15.26264 7.51489,-6.89388 13.9972,-15.78276 17.2112,-26.40287 3.214,-10.51933 3.16742,-22.52911 -0.65987,-33.00954 -8.05828,-21.04621 -24.22142,-34.48441 -41.76641,-43.43554 -17.62266,-8.92775 -37.06967,-12.84819 -56.48559,-12.76283 -19.35386,0.0408 -39.28215,4.99957 -56.51664,13.84197 -17.50621,8.71037 -33.58394,22.19517 -44.56125,40.29921 -5.35666,9.11406 -9.1451,19.41592 -10.89184,30.2146 -1.87874,10.81427 -0.96269,22.13322 1.79332,32.66011 2.62394,10.58909 7.73996,20.52609 13.66333,28.76304 2.9578,4.12225 5.91561,8.25223 9.42464,11.81562 l 5.10046,5.54296 5.54298,4.9685 c 14.86667,13.20529 32.28746,22.56012 50.29052,29.05026 18.06515,6.45896 36.93766,9.99904 55.89554,10.853 18.96572,0.83853 38.07888,-1.01694 56.63314,-5.72152 18.74056,-4.86756 35.89737,-12.18063 52.52632,-21.76049 16.45817,-9.76615 31.81391,-22.60659 43.9712,-38.66887 12.10297,-16.03897 20.53389,-35.51694 23.28209,-55.94995 1.58371,-10.19321 1.21107,-20.56483 0.11638,-30.7426 -1.69235,-10.16203 -3.94372,-19.92833 -8.1437,-29.57024 -8.43092,-19.05115 -20.45622,-34.5078 -35.40055,-47.62779 -14.92098,-12.99572 -32.38062,-22.42811 -50.08089,-28.80952 -16.06999,-5.76808 -32.32629,-9.33142 -48.4428,-11.80794 15.82148,-0.26376 31.91476,-0.86947 47.39476,-1.63029 19.9128,-1.10237 40.00419,-3.19846 60.20422,-7.06457 20.15345,-3.9127 40.53207,-9.67302 59.95578,-19.12095 19.37714,-9.44014 37.50446,-22.9094 51.90542,-39.56162 3.57111,-4.18444 7.21199,-8.33004 10.1699,-12.91812 3.15178,-4.45611 6.29598,-8.92001 8.85786,-13.8885 2.67069,-4.87537 5.58185,-9.52553 7.44503,-15.06078 l 3.11304,-8.01944 2.31339,-8.05829 c 5.87679,-21.50432 7.15781,-44.60783 2.46095,-66.67105 -4.53373,-22.0865 -14.46286,-42.92317 -28.09521,-60.43711 -13.60905,-17.59159 -30.68055,-31.84496 -49.03297,-43.01633 -4.65795,-2.63951 -9.31592,-5.36442 -14.05925,-7.8021 l -14.50962,-6.57547 c -9.92148,-4.09128 -20.32429,-7.54591 -30.82799,-9.99915 -21.05402,-4.93745 -42.79893,-6.38916 -64.21783,-4.44837 -21.42666,1.94862 -42.59711,7.2587 -62.43231,16.12439 -19.78081,8.88116 -38.49804,21.27136 -53.4656,37.88475 -7.44501,8.39989 -14.11364,17.17241 -19.61004,27.41214 -5.75259,10.13108 -9.3936,21.64405 -11.28008,33.32775 -3.74966,23.54602 1.87098,48.20222 14.05157,67.71136 11.95543,19.8817 29.85757,34.79501 49.29672,44.99595 19.31508,10.11554 42.08474,15.51879 63.94614,14.84338 21.99335,-0.50481 43.83148,-6.44354 62.91359,-18.00305 9.57213,-5.69826 18.21266,-13.20533 25.49464,-21.91573 1.87092,-2.14267 3.63321,-4.37074 5.15479,-6.80838 1.56041,-2.43769 3.24509,-4.61139 4.53377,-7.38287 1.35862,-2.66285 2.78704,-5.27131 3.73412,-8.15145 1.11791,-2.79478 2.04957,-5.65943 2.66285,-8.64834 2.82581,-11.76135 2.22802,-24.42322 -1.79332,-35.63344 -3.89721,-11.25673 -10.67455,-21.10834 -18.94243,-28.8794 -8.2834,-7.80208 -18.01854,-13.57017 -28.20401,-17.49066 -10.42604,-4.06018 -21.59742,-5.83794 -32.56686,-5.48859 -21.7838,0.76856 -43.8858,9.96024 -57.54925,28.04096 -3.19071,4.51042 -6.16406,9.5876 -7.77106,15.29362 -1.67687,5.63614 -1.96408,11.69929 -1.01689,17.44408 1.87092,11.62163 8.95097,21.46549 17.68467,27.88573 17.28106,13.15096 42.51168,14.10584 59.71513,1.93306 4.26985,-3.03549 7.98842,-6.90159 10.63571,-11.41982 2.77155,-4.46385 4.02915,-9.99134 3.38484,-15.15388 -1.23442,-10.659 -9.81284,-18.40677 -18.90361,-21.51207 8.8113,4.00586 15.92245,12.40574 15.98457,21.72941 0.25619,9.26936 -6.56774,17.01713 -14.28447,21.42666 -7.83312,4.51823 -17.20339,6.1951 -26.05353,5.17808 -8.85793,-0.8772 -17.15685,-4.97622 -23.77117,-10.58907 -6.48232,-5.69052 -10.74436,-13.37616 -11.47408,-21.20929 -0.8307,-7.96512 2.23582,-15.34026 7.69338,-21.71388 10.95403,-12.66966 28.84831,-18.93463 45.81886,-18.27477 8.52413,0.34178 16.9317,2.06505 24.52419,5.55853 7.84093,3.50896 14.92104,8.33776 20.5339,14.26887 11.31105,11.76916 16.28739,28.07205 11.71477,42.27105 -2.00286,7.0801 -6.35038,13.62455 -11.83897,19.8119 -5.46531,6.00878 -11.93219,11.31111 -19.32277,15.28588 -14.66491,8.12814 -31.89165,12.17284 -48.90097,11.86233 -17.17229,-0.27191 -33.42091,-4.75113 -48.39627,-13.27521 -14.72687,-8.36106 -27.58285,-19.71875 -35.41604,-33.67711 -8.08931,-13.74099 -11.07816,-29.67124 -8.3455,-44.65441 1.44397,-7.46823 3.81953,-14.86665 7.95738,-21.59742 3.86605,-6.88604 9.23045,-13.6401 14.85892,-19.69546 23.15778,-24.37666 57.58016,-38.4981 92.32865,-41.33165 17.44408,-1.44397 35.12101,-0.10896 52.02174,3.99804 8.48525,2.05732 16.62114,4.83654 24.71826,8.23686 l 12.11072,5.58956 c 3.91269,2.03397 7.62345,4.37075 11.48962,6.45904 30.12157,17.67698 53.21732,45.32982 60.01798,77.87346 3.60213,16.12431 2.74817,33.12588 -1.49061,49.21142 l -1.64573,6.02432 -2.15041,5.63614 c -1.11788,3.81954 -3.46245,7.45275 -5.44202,11.14803 -1.85546,3.75747 -4.33972,7.28197 -6.70744,10.86861 -2.22033,3.71083 -4.99967,6.93263 -7.67804,10.24753 -10.83752,13.11992 -24.34562,23.77892 -39.85666,31.82946 -15.53431,8.02719 -32.90078,13.5003 -50.92712,17.42854 -18.05737,3.95927 -36.82897,6.22613 -55.83348,7.96512 -19.59456,1.7157 -38.10997,3.26833 -57.68117,4.03689 -38.80087,1.87099 -77.78806,2.87245 -116.73641,4.26205 -38.9639,1.35081 -77.94334,2.34452 -116.92278,3.21399 -38.98718,1.08688 -77.97437,1.68467 -116.96156,2.02622 -19.49358,0.17059 -38.98717,0.17059 -58.46521,-0.20961 -9.74291,-0.1706 -19.48585,-0.3802 -29.20547,-0.93934 -5.87677,-0.34935 -11.7691,-0.73753 -17.60711,-1.52159 -0.0699,-3.16742 -0.24047,-6.31934 -0.24047,-9.51005 0,-1.93305 0.12395,-3.83501 0.14725,-5.76034 16.62894,1.38185 33.25789,2.56188 49.90238,3.62548 23.83325,1.25766 47.66649,2.10382 71.54638,2.78698 11.94767,0.38836 23.88756,0.48151 35.88183,0.48151 l 18.104,-0.14725 c 6.02426,-0.0233 12.81715,-0.56652 18.46885,-0.80733 24.12826,-1.42068 51.62575,-4.88314 75.83944,-20.82892 11.91665,-7.84868 22.17966,-18.42227 29.77215,-30.06717 3.9127,-5.80692 7.03354,-11.80795 9.9836,-18.00305 l 4.05243,-9.50226 3.09755,-10.14657 c 6.92482,-26.50382 5.94665,-54.95625 -3.50122,-81.26603 -9.43239,-26.20106 -28.6465,-49.75483 -53.0698,-63.55796 -12.29702,-7.32076 -27.00066,-12.25819 -41.8208,-13.40714 -14.88994,-1.28875 -29.9895,1.32752 -43.62186,6.90153 -27.49749,11.37319 -48.17887,34.54657 -57.92182,61.57058 -9.82051,27.82355 -6.21058,59.45116 9.94476,83.99089 8.20582,12.1573 19.28398,22.62998 32.76105,29.26759 13.98166,7.01023 30.8202,8.60943 45.78783,4.47163 14.95206,-4.231 27.95554,-13.63235 36.50292,-25.72751 4.27758,-6.14077 7.65461,-12.34362 10.04571,-19.67217 2.32118,-7.2043 3.14413,-14.79679 2.72492,-22.20296 -0.854,-14.82007 -6.93263,-29.24428 -17.56834,-39.748 -5.43428,-5.24797 -11.38874,-9.36252 -18.98123,-12.00976 -7.42946,-2.56188 -15.64296,-3.05096 -23.15009,-1.07133 -15.27033,3.804 -26.40287,16.0389 -30.4631,29.7877 -4.13779,14.13694 0.16303,30.02834 11.18692,39.21228 5.24021,4.53377 12.592,7.62358 19.87397,6.86275 7.2121,-0.65211 13.6401,-4.6657 17.52951,-10.11552 3.91269,-5.37221 5.64387,-12.35916 4.26204,-18.63967 -1.24991,-6.26497 -5.42654,-11.76911 -10.95402,-14.15242 4.98401,3.37703 7.70119,9.04419 7.94182,14.54834 0.30277,5.57407 -2.05724,10.791 -5.76807,14.50183 -3.61772,3.73411 -8.59396,5.79142 -13.31405,5.53523 -4.72009,-0.20203 -8.92774,-2.70943 -12.18832,-6.37366 -6.43581,-7.19657 -7.98842,-18.19711 -4.33191,-26.54268 3.73412,-8.63273 11.79239,-15.1073 20.10687,-15.96903 8.25235,-1.25765 16.11657,2.74041 22.06322,9.73516 5.73711,6.82392 8.67161,16.08547 8.32226,25.00549 -0.2719,8.95109 -3.79623,17.21118 -9.64198,24.34568 -5.65168,6.99468 -13.48482,11.55949 -21.53536,13.30623 -8.13589,1.53713 -16.37274,0.1706 -23.42957,-3.97481 -7.65461,-4.33191 -14.16022,-10.985 -18.88031,-18.70948 -9.24607,-15.77498 -11.00054,-36.16138 -4.27753,-52.99993 6.92482,-17.38196 20.85215,-32.31075 37.69844,-38.67661 16.82306,-6.87831 35.70332,-5.1859 51.52492,4.4561 17.14906,9.54108 29.76441,25.09089 36.75911,43.38896 7.11113,18.28252 8.19802,39.41414 3.74191,59.03198 -1.8477,9.19949 -6.49011,18.92684 -11.43531,27.31899 -5.17035,8.37654 -11.41982,15.52652 -19.1132,21.13936 -15.41013,11.2568 -36.61937,16.22527 -59.41238,18.94245 -22.42811,2.97329 -46.46321,3.57883 -70.0015,5.20137 -23.65467,1.44397 -47.34824,2.53859 -71.04948,3.5711 -16.54358,0.87726 -33.10266,1.49055 -49.66173,2.0495 9.98342,-210.29976 184.1681,-378.32819 396.88971,-378.32819 219.10297,0 397.36341,178.2604 397.36341,397.37118 0,219.11078 -178.26044,397.37117 -397.36341,397.37117 m 0,-872.37511 c -261.9175,0 -475.00394,213.08644 -475.00394,475.00394 0,261.91749 213.08644,475.00386 475.00394,475.00386 261.91743,0 474.99611,-213.08637 474.99611,-475.00386 0,-261.9175 -213.07868,-475.00394 -474.99611,-475.00394"
       style="fill:#231f20;fill-opacity:1;fill-rule:nonzero;stroke:none;stroke-width:7.76325"
       id="path282" />
  </g>
</svg>
