<?xml version="1.0" encoding="UTF-8" standalone="no"?>
<!-- Created with Inkscape (http://www.inkscape.org/) -->

<svg
   height="1000"
   width="1000"
   sodipodi:docname="void.svg"
   version="1.1"
   id="svg424"
   viewBox="0 0 1000 1000"
   inkscape:version="1.1 (c68e22c387, 2021-05-23)"
   xmlns:inkscape="http://www.inkscape.org/namespaces/inkscape"
   xmlns:sodipodi="http://sodipodi.sourceforge.net/DTD/sodipodi-0.dtd"
   xmlns="http://www.w3.org/2000/svg"
   xmlns:svg="http://www.w3.org/2000/svg"
   xmlns:rdf="http://www.w3.org/1999/02/22-rdf-syntax-ns#"
   xmlns:cc="http://creativecommons.org/ns#"
   xmlns:dc="http://purl.org/dc/elements/1.1/">
  <sodipodi:namedview
     id="base"
     pagecolor="#ffffff"
     bordercolor="#666666"
     borderopacity="1.0"
     inkscape:pageopacity="0.0"
     inkscape:pageshadow="2"
     inkscape:zoom="1"
     inkscape:cx="822.5"
     inkscape:cy="513"
     inkscape:document-units="px"
     inkscape:current-layer="layer1"
     showgrid="false"
     showguides="true"
     inkscape:window-width="1918"
     inkscape:window-height="2054"
     inkscape:window-x="1910"
     inkscape:window-y="0"
     inkscape:window-maximized="0"
     showborder="true"
     inkscape:showpageshadow="false"
     inkscape:pagecheckerboard="0">
    <sodipodi:guide
       id="guide_baseline"
       inkscape:label="baseline"
       position="0,253"
       orientation="0,1" />
    <sodipodi:guide
       id="guide_ascender"
       inkscape:label="ascender"
       position="0,945"
       orientation="0,1" />
    <sodipodi:guide
       id="guide_caps"
       inkscape:label="caps"
       position="0,896"
       orientation="0,1" />
    <sodipodi:guide
       id="guide_xheight"
       inkscape:label="xheight"
       position="0,729"
       orientation="0,1" />
    <sodipodi:guide
       id="guide_descender"
       inkscape:label="descender"
       position="0,28"
       orientation="0,1" />
  </sodipodi:namedview>
  <defs
     id="defs4">
    <clipPath
       clipPathUnits="userSpaceOnUse"
       id="clipPath440">
      <path
         d="M 0,144 H 144 V 0 H 0 Z"
         id="path438" />
    </clipPath>
  </defs>
  <metadata
     id="metadata7">
    <rdf:RDF>
      <cc:Work
         rdf:about="">
        <dc:format>image/svg+xml</dc:format>
        <dc:type
           rdf:resource="http://purl.org/dc/dcmitype/StillImage" />
      </cc:Work>
    </rdf:RDF>
  </metadata>
  <g
     id="layer1"
     inkscape:groupmode="layer"
     inkscape:label="Layer 1">
    <path
       d="M 648.77117,869.4592 C 777.6116,807.9968 866.6571,676.5557 866.6571,524.30106 c 0,-211.10076 -171.1351,-382.23578 -382.23587,-382.23578 -208.16622,0 -377.34494,166.43824 -382.01069,373.48654 -0.16303,-4.72788 -0.35692,-9.46355 -0.35692,-14.23021 0,-219.11252 178.26183,-397.37435 397.36655,-397.37435 219.10483,0 397.36663,178.26183 397.36663,397.37435 0,166.29849 -102.7246,308.97319 -248.01546,368.13759 M 733.9585,516.03311 c 0,-121.83011 -98.76524,-220.58755 -220.5876,-220.58755 -121.83011,0 -220.59529,98.75744 -220.59529,220.58755 0,104.83609 73.15396,192.52309 171.18941,214.96689 C 341.39737,713.7498 247.08059,608.51004 247.08059,481.18349 c 0,-139.35975 112.97989,-252.33959 252.33958,-252.33959 139.3675,0 252.34743,112.97984 252.34743,252.33959 0,58.93924 -20.2701,113.11964 -54.126,156.06641 22.9251,-34.79527 36.3169,-76.43008 36.3169,-121.21679 M 527.11184,624.8751 c 86.24295,0 156.16736,-69.92437 156.16736,-156.17506 0,-44.3675 -18.5932,-84.32537 -48.30347,-112.75474 46.23067,31.78307 76.56977,85.02406 76.56977,145.37631 0,97.37553 -78.94535,176.32099 -176.32874,176.32099 -97.38332,0 -176.32875,-78.94546 -176.32875,-176.32099 0,-29.38426 7.22765,-57.06835 19.944,-81.42972 -5.06168,15.37142 -7.89532,31.75211 -7.89532,48.80815 0,86.25069 69.92445,156.17506 156.17515,156.17506 m -42.69061,214.6874 c -182.24443,0 -329.98078,-147.7363 -329.98078,-329.97293 0,-66.17475 19.55587,-127.74577 53.0857,-179.39529 -21.39572,41.52611 -33.54537,88.57975 -33.54537,138.50576 0,167.30776 135.62554,302.92556 302.92551,302.92556 167.30003,0 302.92561,-135.6178 302.92561,-302.92556 0,-89.53459 -38.8711,-169.97058 -100.6284,-225.42413 81.9498,60.04168 135.1986,156.93592 135.1986,266.31366 0,182.23663 -147.73645,329.97293 -329.98087,329.97293 M 499.42,26.31387 c -261.91959,0 -475,213.08816 -475,475.00774 0,261.91179 213.08041,475.00779 475,475.00779 261.9196,0 475,-213.096 475,-475.00779 0,-261.91958 -213.0804,-475.00774 -475,-475.00774"
       style="fill:#231f20;fill-opacity:1;fill-rule:nonzero;stroke:none;stroke-width:7.76332"
       id="path444" />
  </g>
</svg>
