<?xml version="1.0" encoding="UTF-8" standalone="no"?>
<!-- Created with Inkscape (http://www.inkscape.org/) -->

<svg
   height="1000"
   width="1000"
   sodipodi:docname="earth.svg"
   version="1.1"
   id="svg319"
   viewBox="0 0 1000 1000"
   inkscape:version="1.1 (c68e22c387, 2021-05-23)"
   xmlns:inkscape="http://www.inkscape.org/namespaces/inkscape"
   xmlns:sodipodi="http://sodipodi.sourceforge.net/DTD/sodipodi-0.dtd"
   xmlns="http://www.w3.org/2000/svg"
   xmlns:svg="http://www.w3.org/2000/svg"
   xmlns:rdf="http://www.w3.org/1999/02/22-rdf-syntax-ns#"
   xmlns:cc="http://creativecommons.org/ns#"
   xmlns:dc="http://purl.org/dc/elements/1.1/">
  <sodipodi:namedview
     id="base"
     pagecolor="#ffffff"
     bordercolor="#666666"
     borderopacity="1.0"
     inkscape:pageopacity="0.0"
     inkscape:pageshadow="2"
     inkscape:zoom="1.4142136"
     inkscape:cx="534.92628"
     inkscape:cy="543.05801"
     inkscape:document-units="px"
     inkscape:current-layer="layer1"
     showgrid="false"
     showguides="true"
     inkscape:window-width="1918"
     inkscape:window-height="2054"
     inkscape:window-x="1910"
     inkscape:window-y="0"
     inkscape:window-maximized="0"
     showborder="true"
     inkscape:showpageshadow="false"
     inkscape:pagecheckerboard="0">
    <sodipodi:guide
       id="guide_baseline"
       inkscape:label="baseline"
       position="0,253"
       orientation="0,1" />
    <sodipodi:guide
       id="guide_ascender"
       inkscape:label="ascender"
       position="0,945"
       orientation="0,1" />
    <sodipodi:guide
       id="guide_caps"
       inkscape:label="caps"
       position="0,896"
       orientation="0,1" />
    <sodipodi:guide
       id="guide_xheight"
       inkscape:label="xheight"
       position="0,729"
       orientation="0,1" />
    <sodipodi:guide
       id="guide_descender"
       inkscape:label="descender"
       position="0,28"
       orientation="0,1" />
  </sodipodi:namedview>
  <defs
     id="defs4">
    <clipPath
       clipPathUnits="userSpaceOnUse"
       id="clipPath335">
      <path
         d="M 0,144 H 144 V 0 H 0 Z"
         id="path333" />
    </clipPath>
  </defs>
  <metadata
     id="metadata7">
    <rdf:RDF>
      <cc:Work
         rdf:about="">
        <dc:format>image/svg+xml</dc:format>
        <dc:type
           rdf:resource="http://purl.org/dc/dcmitype/StillImage" />
      </cc:Work>
    </rdf:RDF>
  </metadata>
  <g
     id="layer1"
     inkscape:groupmode="layer"
     inkscape:label="Layer 1">
    <path
       d="m 499.30188,102 c 186.27213,0 342.9428,128.87038 385.7417,302.10789 L 715.56351,191.58043 561.06656,406.90267 445.09869,396.93462 314.95511,638.75295 258.78003,589.26206 175.98468,729.94033 C 129.43612,664.8686 101.93083,585.29503 101.93083,499.37111 101.93083,280.26037 280.19119,102 499.30188,102 m -62.0596,691.43626 -144.4047,-122.03871 -15.78277,61.43078 -24.87354,-59.03974 -40.55533,39.68587 53.16287,-91.1564 z m 170.13221,-409.5284 109.19048,-146.24459 150.13411,172.795 -103.38361,-80.24895 -18.70173,16.63668 -29.5548,-29.20545 -31.54998,33.21129 -25.11418,-11.97096 z m 11.91665,50.69422 -122.65979,17.4208 v 56.0974 l -53.53559,-15.02193 -73.99179,91.40483 85.27183,-161.3675 z M 499.30188,24.36724 c -261.91739,0 -475.00387,213.08642 -475.00387,475.00387 0,261.90958 213.08648,475.00383 475.00387,475.00383 261.9175,0 474.9961,-213.09425 474.9961,-475.00383 0,-261.91745 -213.0786,-475.00387 -474.9961,-475.00387"
       style="fill:#231f20;fill-opacity:1;fill-rule:nonzero;stroke:none;stroke-width:7.76325"
       id="path339" />
  </g>
</svg>
