<?xml version="1.0" encoding="UTF-8" standalone="no"?>
<!-- Created with Inkscape (http://www.inkscape.org/) -->

<svg
   height="1000"
   width="1000"
   sodipodi:docname="fire.svg"
   version="1.1"
   id="svg18"
   viewBox="0 0 1000 1000"
   inkscape:version="1.1 (c68e22c387, 2021-05-23)"
   xmlns:inkscape="http://www.inkscape.org/namespaces/inkscape"
   xmlns:sodipodi="http://sodipodi.sourceforge.net/DTD/sodipodi-0.dtd"
   xmlns="http://www.w3.org/2000/svg"
   xmlns:svg="http://www.w3.org/2000/svg"
   xmlns:rdf="http://www.w3.org/1999/02/22-rdf-syntax-ns#"
   xmlns:cc="http://creativecommons.org/ns#"
   xmlns:dc="http://purl.org/dc/elements/1.1/">
  <sodipodi:namedview
     id="base"
     pagecolor="#ffffff"
     bordercolor="#666666"
     borderopacity="1.0"
     inkscape:pageopacity="0.0"
     inkscape:pageshadow="2"
     inkscape:zoom="1.4142136"
     inkscape:cx="573.11005"
     inkscape:cy="518.30927"
     inkscape:document-units="px"
     inkscape:current-layer="layer1"
     showgrid="false"
     showguides="true"
     inkscape:window-width="1918"
     inkscape:window-height="2054"
     inkscape:window-x="1910"
     inkscape:window-y="0"
     inkscape:window-maximized="0"
     showborder="true"
     inkscape:showpageshadow="false"
     inkscape:pagecheckerboard="0">
    <sodipodi:guide
       id="guide_baseline"
       inkscape:label="baseline"
       position="0,253"
       orientation="0,1" />
    <sodipodi:guide
       id="guide_ascender"
       inkscape:label="ascender"
       position="0,945"
       orientation="0,1" />
    <sodipodi:guide
       id="guide_caps"
       inkscape:label="caps"
       position="0,896"
       orientation="0,1" />
    <sodipodi:guide
       id="guide_xheight"
       inkscape:label="xheight"
       position="0,729"
       orientation="0,1" />
    <sodipodi:guide
       id="guide_descender"
       inkscape:label="descender"
       position="0,28"
       orientation="0,1" />
  </sodipodi:namedview>
  <defs
     id="defs4">
    <clipPath
       clipPathUnits="userSpaceOnUse"
       id="clipPath34">
      <path
         d="M 0,144 H 144 V 0 H 0 Z"
         id="path32" />
    </clipPath>
  </defs>
  <metadata
     id="metadata7">
    <rdf:RDF>
      <cc:Work
         rdf:about="">
        <dc:format>image/svg+xml</dc:format>
        <dc:type
           rdf:resource="http://purl.org/dc/dcmitype/StillImage" />
      </cc:Work>
    </rdf:RDF>
  </metadata>
  <g
     id="layer1"
     inkscape:groupmode="layer"
     inkscape:label="Layer 1">
    <g
       id="g30"
       clip-path="url(#clipPath34)"
       transform="matrix(7.7632772,0,0,-7.7511661,-62.867079,1056.7947)">
      <g
         id="g36"
         transform="translate(104.9639,32.5361)">
        <path
           d="m 0,0 c -2.06,1.049 -3.617,2.656 -1.486,5.963 8.027,12.462 19.527,33.218 -6.589,54.834 1.806,-5.806 5.032,-12.129 -6.129,-22.193 6.355,10.677 1.613,43.968 -20.136,46.185 6.265,-5.798 7.039,-24.894 -11.057,-41.411 0.829,3.033 -1.484,5.517 -9.587,6.312 8.692,-13.255 -32.74,-23.086 -6.932,-52.084 -13.175,9.271 -21.808,24.581 -21.808,41.878 0,28.224 22.962,51.185 51.186,51.185 28.224,0 51.185,-22.961 51.185,-51.185 C 18.647,23.607 11.382,9.396 0,0 m -3.679,51.288 c 1.913,-1.018 4.934,-3.86 4.674,-8.467 -1.161,3 -3.105,1.9 -3.105,1.9 l -7.172,-6.7 c 0,0 7.595,8.067 5.603,13.267 m -11.234,-53.91 c 0.709,3.484 2.838,5.42 7.354,8.193 -5.742,-5.29 -5.742,-9.612 -5.935,-11.612 -16.729,7.548 -2.781,31.3 -2.781,31.3 0,0 -9.284,-19.622 1.362,-27.881 m -13.549,82 c 2.148,-0.29 6.775,-3.806 8.132,-8.216 -1.112,1.398 -1.81,2.733 -4.293,3.345 1.612,-5.645 -7.915,-22.419 -7.915,-22.419 0,0 10.334,20.323 4.076,27.29 m -8.609,-90.868 c -30.956,30.631 9.547,29.628 5.835,51.707 19.544,-22.134 -17.531,-23.534 12.565,-49.994 -4.414,-1.244 -9.061,-1.925 -13.867,-1.925 -1.528,0 -3.038,0.08 -4.533,0.212 M -48.88,39.926 -62.655,27.249 c 0,0 11.564,12.235 11.843,18.353 2.007,-0.482 3.318,-1.224 0.543,-3.675 -1.032,-2.516 1.389,-2.001 1.389,-2.001 m 16.342,60.743 c -33.738,0 -61.186,-27.447 -61.186,-61.185 0,-33.738 27.448,-61.186 61.186,-61.186 33.737,0 61.185,27.448 61.185,61.186 0,33.738 -27.448,61.185 -61.185,61.185"
           style="fill:#231f20;fill-opacity:1;fill-rule:nonzero;stroke:none"
           id="path38" />
      </g>
      <g
         id="g40"
         transform="translate(63.6953,48.043)">
        <path
           d="M 0,0 C -4.764,-4.112 -8.516,-11.612 0.678,-17.39 -2.613,-12.677 -3.629,-6.145 0,0"
           style="fill:#231f20;fill-opacity:1;fill-rule:nonzero;stroke:none"
           id="path42" />
      </g>
    </g>
  </g>
</svg>
